<svg 
 xmlns="http://www.w3.org/2000/svg"
 xmlns:xlink="http://www.w3.org/1999/xlink"
 width="32px" height="30px">
<path fill-rule="evenodd"  fill="rgb(145, 145, 145)"
 d="M15.987,1.001 C16.335,1.001 16.659,1.105 16.904,1.296 L27.835,9.754 L27.835,10.756 L27.835,27.929 C27.835,28.517 27.359,28.996 26.774,28.996 L20.472,28.996 L20.472,28.810 L20.472,20.858 C20.472,19.817 19.632,18.971 18.600,18.971 L13.367,18.971 C12.319,18.971 11.497,19.800 11.497,20.858 L11.497,28.810 L11.497,28.996 L5.196,28.996 C4.618,28.996 4.129,28.507 4.129,27.929 L4.129,10.756 L4.129,9.762 L15.070,1.294 C15.313,1.105 15.639,1.001 15.987,1.001 M15.987,-0.000 C15.441,-0.000 14.895,0.167 14.466,0.501 L0.284,11.478 C0.021,11.686 -0.022,12.036 0.170,12.310 C0.287,12.460 0.463,12.543 0.643,12.543 C0.767,12.543 0.892,12.504 1.001,12.420 L3.139,10.756 L3.139,27.929 C3.139,29.061 4.068,29.997 5.196,29.997 L26.774,29.997 C27.905,29.997 28.825,29.061 28.825,27.929 L28.825,10.756 L30.974,12.420 C31.080,12.496 31.204,12.551 31.328,12.551 C31.510,12.551 31.681,12.469 31.797,12.310 C31.997,12.036 31.954,11.686 31.692,11.478 L17.506,0.501 C17.078,0.167 16.533,-0.000 15.987,-0.000 L15.987,-0.000 ZM12.488,28.810 L12.488,20.858 C12.488,20.355 12.880,19.972 13.367,19.972 L18.600,19.972 C19.086,19.972 19.482,20.355 19.482,20.858 L19.482,28.810 L12.488,28.810 L12.488,28.810 Z"/>
</svg>