<svg 
 xmlns="http://www.w3.org/2000/svg"
 xmlns:xlink="http://www.w3.org/1999/xlink"
 width="32px" height="30px">
<path fill-rule="evenodd"  fill="rgb(251, 130, 38)"
 d="M31.692,11.569 L17.506,0.649 C16.651,-0.015 15.324,-0.015 14.466,0.649 L0.284,11.569 C0.021,11.776 -0.022,12.125 0.170,12.397 C0.367,12.648 0.733,12.713 1.001,12.506 L3.139,10.851 L3.139,27.935 C3.139,29.061 4.068,29.993 5.196,29.993 L26.774,29.993 C27.905,29.993 28.825,29.061 28.825,27.935 L28.825,10.851 L30.974,12.506 C31.080,12.582 31.204,12.637 31.328,12.637 C31.510,12.637 31.681,12.555 31.797,12.397 C31.997,12.125 31.954,11.776 31.692,11.569 ZM19.482,28.811 L12.488,28.811 L12.488,20.901 C12.488,20.400 12.880,20.019 13.367,20.019 L18.600,20.019 C19.086,20.019 19.482,20.400 19.482,20.901 L19.482,28.811 Z"/>
</svg>