<svg 
 xmlns="http://www.w3.org/2000/svg"
 xmlns:xlink="http://www.w3.org/1999/xlink"
 width="28px" height="32px">
<path fill-rule="evenodd"  fill="rgb(251, 130, 38)"
 d="M27.116,20.596 C27.597,20.596 27.990,20.995 27.990,21.487 C27.990,21.979 27.597,22.379 27.116,22.379 L25.684,22.379 L25.684,25.292 L27.116,25.292 C27.597,25.292 27.990,25.693 27.990,26.184 C27.990,26.676 27.597,27.076 27.116,27.076 L25.684,27.076 L25.684,29.647 C25.684,30.865 24.715,31.855 23.523,31.855 L3.130,31.855 C1.938,31.855 0.969,30.865 0.969,29.647 L0.969,3.085 C0.969,1.868 1.938,0.878 3.130,0.878 L23.523,0.878 C24.715,0.878 25.684,1.868 25.684,3.085 L25.684,6.505 L27.116,6.505 C27.597,6.505 27.990,6.905 27.990,7.397 C27.990,7.888 27.597,8.289 27.116,8.289 L25.684,8.289 L25.684,11.201 L27.116,11.201 C27.597,11.201 27.990,11.602 27.990,12.094 C27.990,12.586 27.597,12.985 27.116,12.985 L25.684,12.985 L25.684,15.898 L27.116,15.898 C27.597,15.898 27.990,16.298 27.990,16.790 C27.990,17.282 27.597,17.683 27.116,17.683 L25.684,17.683 L25.684,20.596 L27.116,20.596 ZM23.158,20.596 L24.718,20.596 L24.718,17.683 L23.158,17.683 C22.677,17.683 22.286,17.282 22.286,16.790 C22.286,16.298 22.677,15.898 23.158,15.898 L24.718,15.898 L24.718,12.985 L23.158,12.985 C22.677,12.985 22.286,12.586 22.286,12.094 C22.286,11.602 22.677,11.201 23.158,11.201 L24.718,11.201 L24.718,8.289 L23.158,8.289 C22.677,8.289 22.286,7.888 22.286,7.397 C22.286,6.905 22.677,6.505 23.158,6.505 L24.718,6.505 L24.718,3.085 C24.718,2.412 24.182,1.865 23.523,1.865 L20.449,1.865 L20.449,30.868 L23.523,30.868 C24.182,30.868 24.718,30.321 24.718,29.647 L24.718,27.076 L23.158,27.076 C22.677,27.076 22.286,26.676 22.286,26.184 C22.286,25.693 22.677,25.292 23.158,25.292 L24.718,25.292 L24.718,22.379 L23.158,22.379 C22.677,22.379 22.286,21.979 22.286,21.487 C22.286,20.995 22.677,20.596 23.158,20.596 Z"/>
</svg>