<svg 
 xmlns="http://www.w3.org/2000/svg"
 xmlns:xlink="http://www.w3.org/1999/xlink"
 width="32px" height="28px">
<path fill-rule="evenodd"  fill="rgb(251, 130, 38)"
 d="M28.642,22.795 C28.482,22.846 28.373,22.993 28.373,23.161 L28.373,27.477 C28.373,27.669 28.268,27.845 28.099,27.935 C28.022,27.976 27.938,27.996 27.855,27.996 C27.754,27.996 27.653,27.967 27.566,27.908 L20.283,23.016 C20.219,22.974 20.145,22.950 20.068,22.950 L3.383,22.950 C1.515,22.950 -0.005,21.430 -0.005,19.561 L-0.005,3.380 C-0.005,1.510 1.515,-0.011 3.383,-0.011 L28.615,-0.011 C30.483,-0.011 32.003,1.510 32.003,3.380 L32.003,19.561 C32.003,20.906 30.259,22.287 28.642,22.795 ZM26.613,5.805 L5.331,5.805 C4.992,5.805 4.717,6.080 4.717,6.419 C4.717,6.757 4.992,7.033 5.331,7.033 L26.613,7.033 C26.950,7.033 27.226,6.757 27.226,6.419 C27.226,6.080 26.950,5.805 26.613,5.805 ZM26.613,10.783 L5.331,10.783 C4.992,10.783 4.717,11.059 4.717,11.397 C4.717,11.736 4.992,12.011 5.331,12.011 L26.613,12.011 C26.950,12.011 27.226,11.736 27.226,11.397 C27.226,11.059 26.950,10.783 26.613,10.783 ZM26.613,15.590 L5.331,15.590 C4.992,15.590 4.717,15.865 4.717,16.204 C4.717,16.543 4.992,16.818 5.331,16.818 L26.613,16.818 C26.950,16.818 27.226,16.543 27.226,16.204 C27.226,15.865 26.950,15.590 26.613,15.590 Z"/>
</svg>