<svg 
 xmlns="http://www.w3.org/2000/svg"
 xmlns:xlink="http://www.w3.org/1999/xlink"
 width="32px" height="28px">
<path fill-rule="evenodd"  fill="rgb(145, 145, 145)"
 d="M28.642,22.795 C28.482,22.846 28.373,22.993 28.373,23.161 L28.373,27.477 C28.373,27.669 28.268,27.845 28.099,27.935 C28.022,27.976 27.938,27.996 27.855,27.996 C27.754,27.996 27.653,27.967 27.566,27.908 L20.283,23.016 C20.219,22.974 20.145,22.950 20.068,22.950 L3.383,22.950 C1.515,22.950 -0.005,21.430 -0.005,19.561 L-0.005,3.380 C-0.005,1.510 1.515,-0.011 3.383,-0.011 L28.615,-0.011 C30.483,-0.011 32.003,1.510 32.003,3.380 L32.003,19.561 C32.003,20.906 30.259,22.287 28.642,22.795 ZM30.966,3.380 C30.966,2.082 29.911,1.027 28.615,1.027 L3.383,1.027 C2.087,1.027 1.032,2.082 1.032,3.380 L1.032,19.561 C1.032,20.857 2.087,21.913 3.383,21.913 L20.068,21.913 C20.351,21.913 20.625,21.996 20.860,22.154 L27.336,26.504 L27.336,23.161 C27.336,22.538 27.736,21.993 28.330,21.805 C29.661,21.387 30.966,20.275 30.966,19.561 L30.966,3.380 ZM26.613,16.818 L5.331,16.818 C4.992,16.818 4.717,16.543 4.717,16.204 C4.717,15.865 4.992,15.590 5.331,15.590 L26.613,15.590 C26.950,15.590 27.226,15.865 27.226,16.204 C27.226,16.543 26.950,16.818 26.613,16.818 ZM26.613,12.011 L5.331,12.011 C4.992,12.011 4.717,11.736 4.717,11.397 C4.717,11.059 4.992,10.783 5.331,10.783 L26.613,10.783 C26.950,10.783 27.226,11.059 27.226,11.397 C27.226,11.736 26.950,12.011 26.613,12.011 ZM26.613,7.033 L5.331,7.033 C4.992,7.033 4.717,6.757 4.717,6.419 C4.717,6.080 4.992,5.805 5.331,5.805 L26.613,5.805 C26.950,5.805 27.226,6.080 27.226,6.419 C27.226,6.757 26.950,7.033 26.613,7.033 Z"/>
</svg>