<?xml version="1.0" encoding="utf-8"?>
<!-- Generator: Adobe Illustrator 16.0.0, SVG Export Plug-In . SVG Version: 6.00 Build 0)  -->
<!DOCTYPE svg PUBLIC "-//W3C//DTD SVG 1.1//EN" "http://www.w3.org/Graphics/SVG/1.1/DTD/svg11.dtd">
<svg version="1.1" id="Layer_1" xmlns="http://www.w3.org/2000/svg" xmlns:xlink="http://www.w3.org/1999/xlink" x="0px" y="0px"
	 width="30px" height="30px" viewBox="0 0 30 30" enable-background="new 0 0 30 30" xml:space="preserve">
<g>
	<path fill="#FB8226" d="M18.104,29.854c-0.621,0-1.252-0.322-1.563-0.85l-0.542-0.877c-0.086-0.148-0.352-0.294-0.522-0.294h-0.513
		c-0.38,0-0.583-0.008-0.648-0.01l-0.138-0.019c-0.144,0.021-0.368,0.159-0.444,0.287l-0.507,0.857
		c-0.383,0.666-1.338,1.015-2.094,0.751L8.525,28.77c-0.777-0.264-1.272-1.078-1.146-1.896l0.177-1.065
		c0.021-0.173-0.127-0.485-0.227-0.559l-0.862-0.712c-0.149-0.14-0.364-0.235-0.507-0.183l-1.095,0.362
		c-0.71,0.265-1.678-0.073-2.09-0.745l-1.391-2.377c-0.413-0.714-0.25-1.647,0.377-2.175l0.831-0.709
		c0.101-0.101,0.215-0.433,0.185-0.539L2.59,17.066c-0.025-0.215-0.214-0.459-0.393-0.528l-0.948-0.345
		c-0.768-0.28-1.259-1.121-1.121-1.917l0.487-2.68c0.136-0.804,0.867-1.426,1.701-1.442l1.082-0.016
		c0.187-0.006,0.473-0.199,0.523-0.303L4.483,8.89c0.129-0.181,0.146-0.507,0.055-0.66L4.039,7.381
		C3.631,6.653,3.798,5.716,4.423,5.193l2.138-1.761c0.563-0.475,1.628-0.486,2.229-0.02L9.654,4.1
		c0.057,0.041,0.355,0.143,0.614,0.07l1.045-0.358c0.2-0.063,0.417-0.294,0.45-0.471l0.176-0.969
		c0.137-0.796,0.889-1.422,1.711-1.422h2.782c0.809,0,1.568,0.615,1.73,1.4l0.205,1.035c0.029,0.184,0.275,0.425,0.438,0.483
		l1.225,0.417c0.119,0.041,0.31-0.014,0.457-0.121l0.759-0.633c0.603-0.483,1.671-0.48,2.249,0.001l2.117,1.764
		c0.625,0.503,0.816,1.429,0.44,2.146l-0.549,0.955C25.42,8.54,25.43,8.854,25.518,8.989l0.551,0.964
		c0.094,0.187,0.373,0.37,0.545,0.37h1.009c0.827,0,1.586,0.62,1.728,1.411l0.469,2.692c0.152,0.809-0.322,1.633-1.102,1.919
		l-1.02,0.38c-0.139,0.067-0.352,0.336-0.385,0.516l-0.174,1.023c-0.07,0.242,0.031,0.545,0.147,0.633l0.787,0.653
		c0.628,0.509,0.805,1.464,0.397,2.173l-1.387,2.365c-0.398,0.674-1.37,1.021-2.118,0.766l-1.002-0.338
		c-0.214-0.058-0.493,0.03-0.666,0.153l-0.81,0.654c-0.176,0.133-0.303,0.45-0.276,0.589L22.4,26.9
		c0.143,0.805-0.355,1.647-1.133,1.925l-2.604,0.934C18.484,29.823,18.295,29.854,18.104,29.854z"/>
	<path fill="#FB8226" d="M14.373,26.854c0.113,0.004,0.294,0.01,0.59,0.01h0.513c0.529,0,1.12,0.332,1.372,0.772l0.539,0.871
		c0.168,0.285,0.633,0.45,0.939,0.341l2.604-0.935c0.326-0.116,0.561-0.509,0.5-0.84l-0.185-0.976
		c-0.103-0.506,0.18-1.197,0.632-1.535l0.818-0.662c0.381-0.272,0.977-0.485,1.568-0.308l1.024,0.343
		c0.349,0.119,0.797-0.086,0.942-0.334l1.385-2.36c0.17-0.298,0.092-0.731-0.174-0.946l-0.776-0.645
		c-0.429-0.33-0.651-1.056-0.485-1.606l0.162-0.969c0.088-0.493,0.504-1.025,0.971-1.243l1.058-0.395
		c0.34-0.126,0.546-0.484,0.479-0.838l-0.002-0.005L28.379,11.9c-0.059-0.322-0.411-0.607-0.757-0.607h-1.009
		c-0.541,0-1.164-0.389-1.418-0.886l-0.521-0.915c-0.276-0.413-0.296-1.118-0.028-1.575l0.539-0.936
		c0.152-0.293,0.065-0.722-0.205-0.939l-2.125-1.77c-0.213-0.179-0.754-0.173-0.981,0.006l-0.776,0.646
		c-0.349,0.254-0.875,0.446-1.384,0.28l-1.237-0.42c-0.461-0.164-0.99-0.666-1.08-1.23L17.193,2.54
		c-0.068-0.334-0.418-0.619-0.762-0.619H13.65c-0.338,0-0.683,0.289-0.74,0.618l-0.177,0.976c-0.1,0.529-0.576,1.052-1.11,1.218
		l-1.035,0.354c-0.117,0.047-0.334,0.071-0.438,0.071c-0.215,0-0.754-0.029-1.107-0.297L8.174,4.17
		C7.95,3.996,7.409,3.994,7.198,4.172L5.059,5.934C4.8,6.15,4.725,6.596,4.898,6.903L5.39,7.742C5.677,8.223,5.641,8.96,5.309,9.418
		l-0.518,0.87c-0.194,0.411-0.831,0.804-1.37,0.821l-1.089,0.016c-0.352,0.007-0.687,0.292-0.746,0.637l-0.487,2.683
		c-0.058,0.335,0.166,0.721,0.492,0.839l0.959,0.348c0.534,0.208,0.956,0.754,1.016,1.304l0.171,1.027
		c0.131,0.439-0.136,1.126-0.473,1.459l-0.859,0.734c-0.273,0.229-0.345,0.648-0.165,0.958l1.384,2.364
		c0.162,0.264,0.619,0.434,0.911,0.326l1.099-0.365c0.541-0.195,1.141,0.047,1.49,0.375l0.817,0.675
		c0.38,0.278,0.655,0.938,0.59,1.456l-0.179,1.08c-0.053,0.349,0.167,0.717,0.502,0.83l2.612,0.932
		c0.298,0.104,0.754-0.057,0.905-0.32l0.51-0.863c0.233-0.396,0.729-0.707,1.206-0.759l0.108-0.003
		C14.239,26.842,14.301,26.842,14.373,26.854z"/>
	<path fill="#FFFFFF" d="M14.974,20.456c-2.827,0-5.127-2.263-5.127-5.045c0-2.795,2.3-5.069,5.127-5.069
		c2.833,0,5.137,2.274,5.137,5.069C20.111,18.193,17.807,20.456,14.974,20.456z"/>
	<path fill="#FB8226" d="M14.974,11.313c-2.284,0-4.141,1.838-4.141,4.098c0,2.247,1.857,4.075,4.141,4.075
		c2.29,0,4.151-1.828,4.151-4.075C19.125,13.151,17.264,11.313,14.974,11.313z"/>
</g>
</svg>
