<svg 
 xmlns="http://www.w3.org/2000/svg"
 xmlns:xlink="http://www.w3.org/1999/xlink"
 width="30px" height="30px">
<path fill-rule="evenodd"  fill="rgb(251, 130, 38)"
 d="M18.104,29.853 C17.482,29.853 16.851,29.531 16.540,29.004 L15.998,28.127 C15.912,27.978 15.647,27.833 15.476,27.833 L14.963,27.833 C14.583,27.833 14.380,27.825 14.315,27.823 L14.177,27.804 C14.033,27.826 13.809,27.964 13.733,28.092 L13.226,28.949 C12.843,29.615 11.888,29.964 11.132,29.700 L8.525,28.770 C7.748,28.506 7.253,27.691 7.379,26.874 L7.556,25.809 C7.577,25.636 7.429,25.323 7.329,25.250 L6.467,24.538 C6.318,24.398 6.103,24.303 5.960,24.356 L4.865,24.718 C4.155,24.982 3.187,24.644 2.775,23.973 L1.384,21.596 C0.971,20.882 1.134,19.948 1.761,19.421 L2.592,18.712 C2.693,18.611 2.807,18.279 2.777,18.173 L2.590,17.066 C2.565,16.852 2.376,16.608 2.197,16.538 L1.249,16.194 C0.481,15.913 -0.010,15.072 0.128,14.277 L0.615,11.597 C0.751,10.793 1.482,10.171 2.316,10.155 L3.398,10.139 C3.585,10.133 3.871,9.940 3.921,9.836 L4.483,8.890 C4.612,8.709 4.629,8.383 4.538,8.230 L4.039,7.381 C3.631,6.653 3.798,5.716 4.423,5.193 L6.561,3.432 C7.124,2.957 8.189,2.946 8.790,3.412 L9.654,4.100 C9.711,4.141 10.009,4.243 10.268,4.170 L11.313,3.812 C11.513,3.749 11.730,3.518 11.763,3.341 L11.939,2.372 C12.076,1.576 12.828,0.950 13.650,0.950 L16.431,0.950 C17.240,0.950 18.000,1.565 18.162,2.350 L18.367,3.385 C18.397,3.569 18.642,3.810 18.804,3.868 L20.030,4.285 C20.149,4.326 20.339,4.271 20.487,4.164 L21.245,3.531 C21.848,3.048 22.916,3.051 23.494,3.532 L25.612,5.296 C26.237,5.799 26.428,6.725 26.052,7.442 L25.503,8.397 C25.420,8.540 25.429,8.854 25.518,8.989 L26.068,9.953 C26.162,10.140 26.442,10.323 26.613,10.323 L27.622,10.323 C28.449,10.323 29.208,10.943 29.350,11.734 L29.819,14.426 C29.970,15.235 29.496,16.059 28.717,16.345 L27.697,16.725 C27.558,16.792 27.345,17.060 27.313,17.240 L27.138,18.263 C27.069,18.506 27.170,18.808 27.286,18.897 L28.073,19.550 C28.701,20.058 28.878,21.014 28.470,21.722 L27.084,24.088 C26.685,24.762 25.714,25.109 24.966,24.853 L23.964,24.516 C23.750,24.458 23.470,24.546 23.298,24.669 L22.488,25.323 C22.312,25.456 22.185,25.774 22.212,25.912 L22.401,26.901 C22.543,27.705 22.045,28.548 21.267,28.825 L18.664,29.759 C18.484,29.823 18.295,29.853 18.104,29.853 ZM14.974,20.456 C12.147,20.456 9.847,18.193 9.847,15.411 C9.847,12.616 12.147,10.342 14.974,10.342 C17.807,10.342 20.111,12.616 20.111,15.411 C20.111,18.193 17.807,20.456 14.974,20.456 ZM14.974,11.313 C12.690,11.313 10.833,13.151 10.833,15.411 C10.833,17.658 12.690,19.486 14.974,19.486 C17.263,19.486 19.125,17.658 19.125,15.411 C19.125,13.151 17.263,11.313 14.974,11.313 Z"/>
</svg>