<svg 
 xmlns="http://www.w3.org/2000/svg"
 xmlns:xlink="http://www.w3.org/1999/xlink"
 width="30px" height="30px">
<path fill-rule="evenodd"  fill="rgb(145, 145, 145)"
 d="M18.104,29.853 C17.482,29.853 16.851,29.531 16.540,29.004 L15.998,28.127 C15.912,27.978 15.647,27.833 15.476,27.833 L14.963,27.833 C14.583,27.833 14.380,27.825 14.315,27.823 L14.177,27.804 C14.033,27.826 13.809,27.964 13.733,28.092 L13.226,28.949 C12.843,29.615 11.888,29.964 11.132,29.700 L8.525,28.770 C7.748,28.506 7.253,27.691 7.379,26.874 L7.556,25.809 C7.577,25.636 7.429,25.323 7.329,25.250 L6.467,24.538 C6.318,24.398 6.103,24.303 5.960,24.356 L4.865,24.718 C4.155,24.982 3.187,24.644 2.775,23.973 L1.384,21.596 C0.971,20.882 1.134,19.948 1.761,19.421 L2.592,18.712 C2.693,18.611 2.807,18.279 2.777,18.173 L2.590,17.066 C2.565,16.852 2.376,16.608 2.197,16.538 L1.249,16.194 C0.481,15.913 -0.010,15.072 0.128,14.277 L0.615,11.597 C0.751,10.793 1.482,10.171 2.316,10.155 L3.398,10.139 C3.585,10.133 3.871,9.940 3.921,9.836 L4.483,8.890 C4.612,8.709 4.629,8.383 4.538,8.230 L4.039,7.381 C3.631,6.653 3.798,5.716 4.423,5.193 L6.561,3.432 C7.124,2.957 8.189,2.946 8.790,3.412 L9.654,4.100 C9.711,4.141 10.009,4.243 10.268,4.170 L11.313,3.812 C11.513,3.749 11.730,3.518 11.763,3.341 L11.939,2.372 C12.076,1.576 12.828,0.950 13.650,0.950 L16.431,0.950 C17.240,0.950 18.000,1.565 18.162,2.350 L18.367,3.385 C18.397,3.569 18.642,3.810 18.804,3.868 L20.030,4.285 C20.149,4.326 20.339,4.271 20.487,4.164 L21.245,3.531 C21.848,3.048 22.916,3.051 23.494,3.532 L25.612,5.296 C26.237,5.799 26.428,6.725 26.052,7.442 L25.503,8.397 C25.420,8.540 25.429,8.854 25.518,8.989 L26.068,9.953 C26.162,10.140 26.442,10.323 26.613,10.323 L27.622,10.323 C28.449,10.323 29.208,10.943 29.350,11.734 L29.819,14.426 C29.970,15.235 29.496,16.059 28.717,16.345 L27.697,16.725 C27.558,16.792 27.345,17.060 27.313,17.240 L27.138,18.263 C27.069,18.506 27.170,18.808 27.286,18.897 L28.073,19.550 C28.701,20.058 28.878,21.014 28.470,21.722 L27.084,24.088 C26.685,24.762 25.714,25.109 24.966,24.853 L23.964,24.516 C23.750,24.458 23.470,24.546 23.298,24.669 L22.488,25.323 C22.312,25.456 22.185,25.774 22.212,25.912 L22.401,26.901 C22.543,27.705 22.045,28.548 21.267,28.825 L18.664,29.759 C18.484,29.823 18.295,29.853 18.104,29.853 ZM14.373,26.854 C14.486,26.858 14.667,26.863 14.963,26.863 L15.476,26.863 C16.005,26.863 16.595,27.196 16.848,27.636 L17.387,28.507 C17.555,28.792 18.019,28.957 18.326,28.847 L20.930,27.913 C21.256,27.797 21.490,27.404 21.430,27.073 L21.245,26.097 C21.142,25.592 21.425,24.901 21.877,24.562 L22.696,23.900 C23.076,23.628 23.672,23.415 24.264,23.593 L25.288,23.936 C25.636,24.055 26.085,23.849 26.231,23.601 L27.615,21.241 C27.785,20.944 27.707,20.510 27.442,20.295 L26.665,19.650 C26.237,19.321 26.013,18.595 26.180,18.044 L26.342,17.075 C26.429,16.582 26.846,16.050 27.312,15.832 L28.370,15.437 C28.710,15.311 28.916,14.953 28.849,14.599 L28.848,14.594 L28.379,11.900 C28.321,11.578 27.968,11.293 27.622,11.293 L26.613,11.293 C26.072,11.293 25.449,10.904 25.196,10.407 L24.675,9.492 C24.399,9.079 24.379,8.374 24.647,7.917 L25.185,6.981 C25.338,6.688 25.251,6.259 24.981,6.042 L22.856,4.272 C22.642,4.093 22.101,4.099 21.874,4.278 L21.098,4.924 C20.749,5.178 20.222,5.370 19.714,5.204 L18.477,4.784 C18.015,4.620 17.487,4.118 17.396,3.554 L17.194,2.540 C17.125,2.206 16.776,1.921 16.431,1.921 L13.650,1.921 C13.312,1.921 12.967,2.210 12.910,2.539 L12.733,3.515 C12.633,4.044 12.157,4.567 11.623,4.733 L10.588,5.087 C10.471,5.134 10.254,5.158 10.150,5.158 C9.935,5.158 9.396,5.129 9.043,4.861 L8.174,4.170 C7.950,3.996 7.409,3.994 7.198,4.172 L5.059,5.934 C4.800,6.150 4.725,6.596 4.898,6.903 L5.390,7.742 C5.677,8.223 5.641,8.960 5.309,9.418 L4.791,10.288 C4.597,10.699 3.960,11.092 3.421,11.109 L2.332,11.125 C1.980,11.132 1.645,11.417 1.586,11.762 L1.099,14.445 C1.041,14.780 1.265,15.166 1.591,15.284 L2.550,15.632 C3.084,15.840 3.506,16.386 3.566,16.936 L3.737,17.963 C3.868,18.403 3.601,19.089 3.264,19.422 L2.405,20.156 C2.132,20.385 2.060,20.804 2.240,21.114 L3.624,23.479 C3.786,23.742 4.243,23.912 4.535,23.804 L5.634,23.440 C6.175,23.244 6.775,23.487 7.124,23.815 L7.941,24.489 C8.321,24.767 8.596,25.428 8.531,25.946 L8.352,27.025 C8.299,27.374 8.519,27.742 8.854,27.856 L11.466,28.787 C11.764,28.890 12.220,28.730 12.371,28.467 L12.881,27.604 C13.114,27.208 13.610,26.896 14.087,26.845 L14.195,26.842 C14.239,26.842 14.301,26.842 14.373,26.854 ZM14.974,20.456 C12.147,20.456 9.847,18.193 9.847,15.411 C9.847,12.616 12.147,10.342 14.974,10.342 C17.807,10.342 20.111,12.616 20.111,15.411 C20.111,18.193 17.807,20.456 14.974,20.456 ZM14.974,11.313 C12.690,11.313 10.833,13.151 10.833,15.411 C10.833,17.658 12.690,19.486 14.974,19.486 C17.263,19.486 19.125,17.658 19.125,15.411 C19.125,13.151 17.263,11.313 14.974,11.313 Z"/>
</svg>