<svg 
 xmlns="http://www.w3.org/2000/svg"
 xmlns:xlink="http://www.w3.org/1999/xlink"
 width="23px" height="29px">
<path fill-rule="evenodd"  fill="rgb(145, 145, 145)"
 d="M12.786,28.996 L10.209,28.996 C2.510,28.996 1.539,25.812 1.453,25.449 C0.296,21.912 -0.009,17.378 1.671,15.629 C2.284,14.982 3.906,14.164 5.336,13.443 L5.578,13.321 C6.666,12.780 7.457,12.379 7.735,12.128 C8.219,11.697 8.556,11.004 8.556,10.441 C8.556,10.068 8.416,9.892 8.331,9.820 C7.900,9.441 6.965,8.055 6.766,7.560 C6.341,6.486 6.356,5.796 6.377,4.752 L6.396,4.029 C6.412,2.828 6.521,2.413 7.311,1.582 C7.366,1.522 8.809,-0.010 11.504,-0.010 C13.922,-0.010 15.461,1.295 15.712,1.619 C16.479,2.418 16.587,2.833 16.594,4.039 L16.617,4.861 C16.635,5.871 16.647,6.538 16.231,7.561 C16.041,8.059 15.098,9.429 14.683,9.809 C14.583,9.895 14.439,10.072 14.439,10.441 C14.439,11.000 14.774,11.694 15.255,12.129 C15.530,12.372 16.286,12.759 17.409,13.320 L17.595,13.413 C18.983,14.108 20.711,14.973 21.329,15.634 C23.001,17.372 22.689,21.946 21.512,25.564 L21.504,25.561 C21.308,26.235 20.051,28.996 12.786,28.996 ZM11.504,0.964 C9.230,0.964 8.032,2.235 8.020,2.248 C7.418,2.882 7.381,3.046 7.368,4.048 L7.349,4.774 C7.328,5.796 7.317,6.310 7.669,7.199 C7.824,7.584 8.686,8.836 8.968,9.083 C9.175,9.261 9.528,9.678 9.528,10.441 C9.528,11.287 9.079,12.235 8.383,12.855 C8.025,13.176 7.354,13.526 6.013,14.192 L5.773,14.313 C4.550,14.930 2.873,15.774 2.374,16.302 C1.024,17.707 1.321,21.922 2.388,25.185 C2.406,25.253 3.140,28.022 10.209,28.022 L12.786,28.022 C19.338,28.022 20.445,25.661 20.565,25.342 L20.589,25.262 C21.662,21.957 21.969,17.703 20.624,16.305 C20.119,15.766 18.339,14.873 17.160,14.283 L16.975,14.191 C15.635,13.521 14.964,13.170 14.608,12.856 C13.913,12.228 13.466,11.281 13.466,10.441 C13.466,9.679 13.826,9.261 14.041,9.079 C14.357,8.787 15.196,7.545 15.327,7.203 C15.671,6.356 15.662,5.862 15.645,4.879 L15.622,4.057 C15.617,3.049 15.580,2.885 14.978,2.254 C14.950,2.223 13.732,0.964 11.504,0.964 Z"/>
</svg>